# xmcd
#
# Track frame offsets:
#	150
#	16328
#	37230
#	54369
#	74163
#	91934
#	107902
#	125298
#	143069
#	158737
#	171272
#
# Disc length: 2544 seconds
#
# Revision: 0
# Processed by: cddbd v1.5.2PL0 Copyright (c) Steve Scherf et al.
# Submitted via: dBpowerAMP V4.0
#
DISCID=9709ee0b
DTITLE=Chalaita - Besame
DYEAR=2001
DGENRE=Pop
TTITLE0=Bésame
TTITLE1=Despiertame
TTITLE2=Mi último aliento
TTITLE3=Con la música
TTITLE4=Envenenado
TTITLE5=Sirena en tierra
TTITLE6=Si tu no estas
TTITLE7=Es por ti
TTITLE8=Déjame en Paz
TTITLE9=No sabes nada del amor
TTITLE10=Bésame dance mix
EXTD=Chalaita. Besame 2001
EXTT0=
EXTT1=
EXTT2=
EXTT3=
EXTT4=
EXTT5=
EXTT6=
EXTT7=
EXTT8=
EXTT9=
EXTT10=
PLAYORDER=
